<?xml version="1.0" standalone="no"?><!DOCTYPE svg PUBLIC "-//W3C//DTD SVG 1.1//EN" "http://www.w3.org/Graphics/SVG/1.1/DTD/svg11.dtd"><svg t="1650637352713" class="icon" viewBox="0 0 1024 1024" version="1.1" xmlns="http://www.w3.org/2000/svg" p-id="5020" xmlns:xlink="http://www.w3.org/1999/xlink" width="200" height="200"><defs><style type="text/css">@font-face { font-family: feedback-iconfont; src: url("//at.alicdn.com/t/font_1031158_u69w8yhxdu.woff2?t=1630033759944") format("woff2"), url("//at.alicdn.com/t/font_1031158_u69w8yhxdu.woff?t=1630033759944") format("woff"), url("//at.alicdn.com/t/font_1031158_u69w8yhxdu.ttf?t=1630033759944") format("truetype"); }
</style></defs><path d="M485.2 661.4c4.3 2 9.3 2 13.6 0l232-110V709c0 6.1-3.4 11.6-8.8 14.3L499.1 835.6c-4.5 2.3-9.8 2.3-14.2 0L202.7 723.4c-5.4-2.7-8.8-8.2-8.8-14.3V551.4l291.3 110z m344.3-289.8v436.1c0 16.4-13.3 29.7-29.7 29.7s-29.7-13.3-29.7-29.7V383.8l-39.4 9.2v109.4L492 615.6 193.9 502.4v-113l-77.3-24.9c-6.1-2.4-10.2-8.3-10.2-14.9s4-12.5 10.2-14.9L486.1 187c3.8-1.5 8-1.5 11.7 0l369.6 147.7c6.1 2.4 10.1 8.3 10.1 14.9s-4 12.5-10.1 14.9l-37.9 7.1z" p-id="5021" fill="#515151"></path></svg>